<svg width="89.000000" height="93.000000" viewBox="0 0 89 93" fill="none" xmlns="http://www.w3.org/2000/svg" xmlns:xlink="http://www.w3.org/1999/xlink">
	<desc>
			Created with Pixso.
	</desc>
	<defs>
		<clipPath id="clip105_562">
			<rect id="Graphic_Elemnts" width="89.000000" height="93.000000" fill="white" fill-opacity="0"/>
		</clipPath>
	</defs>
	<g clip-path="url(#clip105_562)">
		<path id="path" d="M0 93L0 89.78C0.53 89.78 1.03 89.73 1.51 89.79C2.4 89.9 2.69 89.6 2.68 88.67C2.65 81.15 2.67 73.63 2.67 66.11C2.68 63.05 4.53 61.21 7.59 61.2C9.87 61.19 12.16 61.2 14.57 61.2C14.57 60.02 14.57 58.94 14.57 57.85C14.57 53.18 14.53 48.52 14.58 43.85C14.6 42.57 14.7 41.23 15.7 40.19C16.42 39.43 17.23 38.83 18.33 38.82C20.83 38.81 23.34 38.82 25.88 38.82C25.93 38.06 25.99 37.47 25.99 36.88C25.97 32.72 25.89 28.55 25.94 24.38C25.96 23.29 26.18 22.13 26.6 21.13C27.31 19.49 28.76 18.79 30.55 18.79C34 18.8 37.45 18.79 40.9 18.79C41.21 18.79 41.52 18.79 42.06 18.79C41.03 17.67 40.14 16.7 39.26 15.73C37.63 13.95 35.82 12.3 34.41 10.36C31.48 6.29 33.09 1.37 37.91 0.16C40.33 -0.45 42.99 0.67 44.45 3.29C45.36 2.49 46.2 1.53 47.24 0.88C49.14 -0.33 51.16 -0.24 53.1 0.88C55.17 2.07 56.21 3.87 56.19 6.26C56.18 8.29 55.23 9.91 53.92 11.36C51.72 13.79 49.48 16.21 47.16 18.74C47.9 18.74 48.51 18.74 49.12 18.74C51.91 18.74 54.71 18.73 57.5 18.73C60.71 18.72 62.43 21.05 62.38 23.57C62.28 28.55 62.35 33.54 62.35 38.69C63.78 38.69 65.18 38.67 66.57 38.69C67.7 38.71 68.83 38.71 69.95 38.82C72.01 39.02 73.37 40.37 73.66 42.41C73.73 42.96 73.76 43.53 73.76 44.09C73.77 49.39 73.76 54.68 73.76 59.98L73.76 61.2C75.99 61.2 78.12 61.19 80.25 61.2C80.94 61.21 81.64 61.21 82.31 61.33C84.47 61.73 85.94 63.55 85.94 65.79C85.95 73.31 85.95 80.83 85.95 88.36L85.95 89.77L89 89.77L89 93L0 93ZM39.94 85.51C39.27 85.44 38.51 86.08 38.45 86.77C38.37 87.6 38.95 88.37 39.72 88.45C40.42 88.53 41.31 87.81 41.37 87.11C41.43 86.4 40.71 85.6 39.94 85.51ZM64.81 86.98C64.83 86.17 64.22 85.54 63.43 85.54C62.59 85.55 61.99 86.1 61.96 86.89C61.93 87.72 62.55 88.42 63.34 88.46C64.14 88.49 64.79 87.83 64.81 86.98ZM72.37 87C72.38 86.16 71.81 85.55 71.02 85.54C70.15 85.54 69.53 86.13 69.53 86.96C69.53 87.8 70.15 88.44 70.98 88.45C71.72 88.46 72.36 87.8 72.37 87ZM17.78 86.97C17.79 86.24 17.07 85.49 16.36 85.48C15.67 85.47 14.87 86.31 14.88 87.03C14.89 87.7 15.68 88.46 16.37 88.45C17.07 88.44 17.77 87.71 17.78 86.97ZM49.51 86.95C49.5 86.22 48.79 85.55 48.04 85.55C47.2 85.55 46.66 86.11 46.66 86.96C46.67 87.79 47.35 88.49 48.12 88.46C48.82 88.43 49.52 87.67 49.51 86.95ZM55.74 88.41C56.49 88.44 57.21 87.8 57.26 87.07C57.3 86.26 56.63 85.55 55.82 85.55C55.08 85.54 54.44 86.12 54.41 86.84C54.36 87.73 54.91 88.38 55.74 88.41ZM30.43 59.11C30.43 58.27 29.87 57.72 29.03 57.72C28.2 57.71 27.58 58.36 27.6 59.21C27.62 59.99 28.25 60.56 29.07 60.54C29.91 60.51 30.44 59.96 30.43 59.11ZM38.18 59.14C38.2 58.35 37.65 57.74 36.91 57.72C36.04 57.69 35.37 58.31 35.38 59.11C35.39 59.94 35.98 60.54 36.78 60.54C37.63 60.53 38.17 59.99 38.18 59.14ZM44.35 60.54C45.11 60.59 45.86 59.97 45.91 59.23C45.97 58.5 45.32 57.78 44.55 57.72C43.81 57.66 43.14 58.17 43.07 58.84C42.98 59.83 43.45 60.46 44.35 60.54ZM54.04 59.14C54.03 58.29 53.45 57.71 52.63 57.73C51.82 57.75 51.21 58.34 51.2 59.13C51.19 59.89 51.84 60.54 52.63 60.54C53.47 60.53 54.04 59.96 54.04 59.14ZM59.03 59.19C59.04 60 59.55 60.52 60.35 60.54C61.23 60.55 61.83 59.96 61.83 59.09C61.82 58.32 61.24 57.74 60.46 57.73C59.59 57.71 59.03 58.29 59.03 59.19ZM69.34 59.22C69.39 58.37 68.85 57.75 68.05 57.71C67.31 57.68 66.54 58.33 66.5 59.03C66.45 59.78 67.11 60.5 67.86 60.54C68.72 60.58 69.3 60.06 69.34 59.22ZM7.38 86.94C7.38 87.79 8.02 88.47 8.8 88.46C9.43 88.45 10.21 87.64 10.22 86.98C10.24 86.27 9.53 85.56 8.79 85.55C7.99 85.53 7.39 86.13 7.38 86.94ZM32.24 85.55C31.58 85.55 30.84 86.27 30.82 86.93C30.79 87.57 31.58 88.43 32.21 88.45C32.98 88.47 33.73 87.75 33.73 86.99C33.74 86.19 33.06 85.54 32.24 85.55ZM40.54 35.23C39.7 35.22 39.09 35.8 39.08 36.58C39.07 37.33 39.74 38.03 40.5 38.05C41.23 38.08 41.93 37.39 41.95 36.62C41.98 35.87 41.32 35.23 40.54 35.23ZM19.46 59.12C19.46 59.97 19.99 60.52 20.83 60.54C21.64 60.55 22.32 59.86 22.29 59.05C22.27 58.39 21.54 57.72 20.86 57.72C20 57.72 19.46 58.26 19.46 59.12ZM25.91 87.03C25.94 86.26 25.38 85.59 24.67 85.55C23.87 85.5 23.12 86.14 23.07 86.91C23.02 87.56 23.81 88.44 24.46 88.46C25.19 88.48 25.89 87.8 25.91 87.03ZM48.31 35.23C47.4 35.22 46.87 35.71 46.86 36.55C46.86 37.38 47.51 38.04 48.34 38.04C48.97 38.05 49.69 37.31 49.7 36.63C49.72 35.82 49.14 35.23 48.31 35.23ZM77.75 86.95C77.75 87.69 78.45 88.47 79.11 88.45C79.84 88.42 80.64 87.65 80.65 86.96C80.67 86.29 79.9 85.57 79.16 85.56C78.37 85.55 77.75 86.15 77.75 86.95ZM55.83 35.23C55 35.23 54.42 35.78 54.4 36.57C54.39 37.29 55.09 38.05 55.8 38.05C56.63 38.05 57.28 37.39 57.26 36.57C57.24 35.7 56.73 35.22 55.83 35.23ZM30.98 36.54C30.97 37.42 31.55 38.05 32.36 38.05C33 38.05 33.84 37.23 33.82 36.6C33.79 35.84 33.16 35.23 32.37 35.23C31.42 35.22 30.98 35.63 30.98 36.54Z" fill="#8E877E" fill-opacity="1.000000" fill-rule="nonzero"/>
	</g>
</svg>
