<svg width="91.708252" height="93.000000" viewBox="0 0 91.7083 93" fill="none" xmlns="http://www.w3.org/2000/svg" xmlns:xlink="http://www.w3.org/1999/xlink">
	<desc>
			Created with Pixso.
	</desc>
	<defs>
		<clipPath id="clip105_568">
			<rect id="Graphic_Elemnts" width="91.708328" height="93.000000" fill="white" fill-opacity="0"/>
		</clipPath>
	</defs>
	<g clip-path="url(#clip105_568)">
		<path id="path" d="M51.11 0C52.29 0.28 52.74 1.1 52.88 2.23C52.98 3.04 53.14 3.86 53.45 4.6C54.14 6.28 55.48 7.11 57.29 7.19C57.78 7.21 58.27 7.23 58.74 7.36C59.54 7.58 59.96 8.2 59.94 8.99C59.92 9.76 59.56 10.44 58.72 10.59C55.89 11.09 53.47 10.25 51.56 8.13C50.87 7.36 50.38 6.39 49.77 5.47C46.12 7.46 42.34 7.8 38.49 6.06C37.95 7.52 37.55 9.05 36.83 10.42C36.19 11.63 35.26 12.72 34.32 13.74C33.58 14.53 32.42 14.44 31.78 13.76C31.15 13.1 31.17 11.96 31.94 11.21C34.32 8.85 35.09 5.94 34.89 2.72C34.82 1.48 35.1 0.52 36.31 0C36.5 0 36.68 0 36.86 0C37.41 0.48 37.97 0.95 38.51 1.45C38.91 1.82 39.24 2.28 39.67 2.59C42.28 4.42 47.05 3.78 49.14 1.39C49.61 0.86 50.21 0.46 50.75 0C50.87 0 50.99 0 51.11 0Z" fill="#8E877E" fill-opacity="1.000000" fill-rule="nonzero"/>
		<path id="path" d="M46.11 29.01C45.82 30.49 45.56 31.97 45.23 33.44C44 39 43.05 44.63 41.01 49.98C39.18 54.77 36.63 59.13 32.65 62.5C30.14 64.63 27.32 66.1 23.95 66.25C23.24 66.28 22.92 66.55 22.72 67.27C21.24 72.68 19.73 78.09 18.18 83.49C17.99 84.17 18.11 84.45 18.76 84.72C21.03 85.66 23.09 86.94 24.63 88.91C25.53 90.05 26.11 91.32 25.7 92.96C17.09 90.56 8.56 88.18 -0.01 85.79C0.5 84.23 1.6 83.42 2.95 82.9C5.13 82.07 7.4 81.98 9.69 82.27C11.1 82.45 11.09 82.48 11.47 81.11C12.95 75.82 14.41 70.52 15.91 65.24C16.09 64.64 16 64.32 15.49 63.96C11.43 61.14 9.69 56.99 8.94 52.32C7.85 45.59 9.25 39.16 11.44 32.85C13.57 26.68 15.79 20.54 17.97 14.39C18.04 14.19 18.13 14 18.26 13.71C27.05 16.17 35.83 18.62 44.76 21.11C44.56 20.02 44.39 19.11 44.21 18.11C46.54 17.46 48.85 16.82 51.16 16.18C58.3 14.18 65.44 12.2 72.58 10.18C73.31 9.97 73.57 10.11 73.81 10.82C76.35 18.23 79.02 25.59 81.45 33.03C83.16 38.26 83.63 43.68 82.67 49.13C81.84 53.86 79.85 57.97 75.57 60.66C76.7 64.7 77.82 68.7 78.93 72.7C79.42 74.46 79.93 76.21 80.39 77.97C80.54 78.52 80.76 78.67 81.35 78.58C83.78 78.21 86.2 78.23 88.55 79.07C89.98 79.58 91.13 80.4 91.73 82.02C83.14 84.42 74.61 86.8 66 89.2C65.76 88.24 65.86 87.37 66.24 86.53C67.03 84.76 68.42 83.54 70 82.53C70.96 81.91 72 81.39 73.05 80.91C73.57 80.67 73.71 80.42 73.55 79.87C71.98 74.32 70.44 68.76 68.85 63.21C68.78 62.95 68.42 62.61 68.17 62.59C63.36 62.28 59.68 59.86 56.62 56.36C52.66 51.81 50.35 46.44 48.96 40.64C48.03 36.78 47.17 32.91 46.27 29.05C46.22 29.04 46.16 29.02 46.11 29.01ZM20.55 18.19C20.43 18.48 20.32 18.69 20.24 18.91C18.97 22.46 17.65 25.99 16.46 29.55C14.77 34.61 12.83 39.62 12.44 45.02C12.17 48.75 12.35 52.43 13.81 55.95C14.45 57.49 15.3 58.89 16.76 60.17C16.53 59.5 16.35 59.05 16.23 58.6C15.32 55.38 15.64 52.14 16.13 48.92C16.93 43.74 18.48 38.75 20.16 33.81C20.36 33.23 20.7 33.17 21.18 33.15C26.53 32.99 31.89 32.83 37.24 32.65C38.69 32.6 40.14 32.53 41.62 32.46C42.16 29.78 42.69 27.17 43.22 24.51C35.6 22.39 28.09 20.29 20.55 18.19ZM71.21 14.4C63.74 16.49 56.43 18.54 49.11 20.57C48.52 20.73 48.5 21.01 48.6 21.49C49.99 27.81 51.28 34.15 52.78 40.44C54.06 45.83 56.35 50.77 60.31 54.79C61.15 55.65 62.15 56.37 63.08 57.16C63.13 57.1 63.17 57.04 63.22 56.98C61.73 55.36 60.85 53.39 60.09 51.37C57.74 45.12 56.4 38.61 55.15 32.08C54.95 31.02 54.77 29.96 54.55 28.77L76.3 28.77C74.57 23.9 72.9 19.19 71.21 14.4Z" fill="#8E877E" fill-opacity="1.000000" fill-rule="nonzero"/>
	</g>
</svg>
