<svg width="107.000000" height="56.000000" viewBox="0 0 107 56" fill="none" xmlns="http://www.w3.org/2000/svg" xmlns:xlink="http://www.w3.org/1999/xlink">
	<desc>
			Created with Pixso.
	</desc>
	<defs/>
	<path id="лебеди" d="M39.95 7.93C34.47 17.85 55.51 31.67 51.7 44.71C47.9 58.08 24.95 57.41 14.32 53.62C5.48 50.39 6.71 47.16 4.25 44.49C2.68 42.82 1.11 42.37 0 41.7C1.45 42.04 3.69 42.49 5.48 44.15C7.61 46.05 7.16 47.05 8.73 48.95C9.73 49.95 12.76 51.51 18.01 53.07C25.17 55.19 31.67 54.74 36.93 53.29C39.39 52.62 47.9 49.73 49.24 43.82C51.03 35.69 41.18 23.76 39.06 16.07C38.16 12.62 37.6 10.72 39.73 7.6L39.95 7.93ZM30.66 31C25.97 25.21 19.14 20.42 17.46 21.75C16.67 22.31 17.46 24.21 16.78 24.43C15.55 24.98 12.08 19.53 11.41 19.97C11.19 20.08 11.86 21.64 11.52 21.87C11.08 22.2 9.73 20.42 9.51 20.64C9.28 20.75 9.95 21.98 10.4 22.98C12.08 26.1 12.98 27.66 12.64 27.88C12.08 28.77 7.27 27.33 5.14 23.76C3.91 21.64 3.91 19.41 4.13 19.3C4.24 19.3 4.69 21.75 6.71 23.65C8.16 25.09 10.17 25.99 10.4 25.65C10.62 25.32 9.72 24.54 9.06 22.75C8.16 20.64 8.16 18.41 8.61 18.18C9.06 18.07 9.95 19.97 10.4 19.74C10.63 19.63 10.4 18.74 10.74 18.52C11.52 17.85 15.44 22.42 15.89 21.97C16.11 21.86 14.77 20.08 15.33 19.96C16.56 19.52 26.52 22.19 32.34 30.44C35.36 34.56 37.15 41.36 36.71 41.25C36.26 41.14 33.79 34.9 30.66 31ZM46.67 9.05C44.1 7.82 44.21 2.92 42.3 2.14C37.38 0.35 35.7 6.04 35.25 7.93C34.47 12.06 35.59 15.62 36.26 17.63C37.71 22.53 47.12 37.69 41.86 42.15C40.96 42.82 39.95 43.04 39.28 43.04L39.28 42.6C46.9 41.48 37.16 23.87 35.82 20.42C34.36 16.29 32.68 11.72 34.02 6.82C34.47 5.38 35.59 1.14 39.06 0.25C40.85 -0.31 43.32 0.03 44.32 1.58C45.44 3.03 45.89 6.37 46.34 7.38C47.12 8.83 49.47 10.05 49.81 10.16C50.37 10.38 47.9 9.61 46.67 9.05ZM67.26 7.6C69.28 10.72 68.82 12.61 67.93 16.07C65.81 23.76 55.96 35.69 57.75 43.82C59.09 49.73 67.6 52.63 70.06 53.29C75.32 54.74 81.81 55.19 88.98 53.07C94.24 51.51 97.26 49.95 98.15 48.95C99.83 47.05 99.38 46.05 101.51 44.15C103.3 42.49 105.54 42.04 107 41.7C105.76 42.37 104.19 42.82 102.74 44.49C100.28 47.16 101.51 50.39 92.67 53.62C82.04 57.41 59.09 58.08 55.29 44.71C51.48 31.67 72.41 17.85 67.04 7.93L67.26 7.6ZM60.66 7.38C61.1 6.37 61.55 3.03 62.56 1.58C63.68 0.03 66.14 -0.31 67.93 0.25C71.29 1.14 72.52 5.38 72.97 6.82C74.31 11.72 72.63 16.29 71.17 20.42C69.83 23.87 60.09 41.48 67.71 42.6L67.71 43.04C67.03 43.04 66.02 42.82 65.13 42.15C59.87 37.69 69.28 22.54 70.73 17.63C71.4 15.62 72.41 12.06 71.63 7.93C71.29 6.04 69.61 0.35 64.69 2.14C62.78 2.92 62.89 7.82 60.32 9.05C59.09 9.6 56.63 10.38 57.19 10.16C57.52 10.05 59.87 8.83 60.66 7.38ZM74.64 30.45C80.35 22.2 90.42 19.53 91.54 19.97C92.22 20.09 90.87 21.87 91.1 21.98C91.54 22.43 95.35 17.86 96.25 18.53C96.58 18.75 96.25 19.64 96.58 19.75C97.03 19.97 97.92 18.08 98.38 18.19C98.82 18.42 98.82 20.65 97.93 22.76C97.26 24.55 96.25 25.33 96.59 25.66C96.81 26 98.83 25.11 100.28 23.66C102.3 21.76 102.63 19.31 102.85 19.31C103.08 19.42 103.08 21.65 101.85 23.77C99.61 27.33 94.91 28.78 94.23 27.89C94.01 27.67 94.91 26.11 96.58 22.99C97.03 21.99 97.7 20.76 97.48 20.65C97.26 20.43 95.91 22.21 95.46 21.88C95.02 21.65 95.8 20.09 95.46 19.98C94.91 19.54 91.43 24.99 90.2 24.44C89.53 24.22 90.2 22.32 89.42 21.77C87.85 20.43 81.02 25.22 76.21 31.01C73.19 34.91 70.72 41.15 70.28 41.27C69.83 41.38 71.62 34.57 74.64 30.45Z" fill="#8E877E" fill-opacity="1.000000" fill-rule="nonzero"/>
</svg>
