<svg width="69.392334" height="93.000000" viewBox="0 0 69.3923 93" fill="none" xmlns="http://www.w3.org/2000/svg" xmlns:xlink="http://www.w3.org/1999/xlink">
	<desc>
			Created with Pixso.
	</desc>
	<defs>
		<clipPath id="clip105_564">
			<rect id="Graphic_Elemnts" width="69.392303" height="93.000000" fill="white" fill-opacity="0"/>
		</clipPath>
	</defs>
	<g clip-path="url(#clip105_564)">
		<path id="path" d="M69.44 34.59C69.33 44.05 66.23 52.37 60.18 59.58C55.91 64.68 51.48 69.64 47.15 74.68C42.96 79.57 39.69 85.04 37.12 90.92C36.61 92.1 35.96 93.02 34.56 93.02C33.23 93.02 32.54 92.17 32.08 91.03C28.24 81.64 21.84 74.05 15.08 66.68C11.36 62.62 7.65 58.55 4.9 53.71C1.15 47.12 -0.6 40.1 0.17 32.49C1.32 21.12 6.43 12.02 15.99 5.71C25.68 -0.69 36.23 -1.64 46.97 2.49C58.57 6.94 65.74 15.54 68.48 27.67C68.99 29.93 69.13 32.28 69.44 34.59ZM16.33 34.83C16.3 44.85 24.43 53.03 34.62 53.01C44.91 52.99 53.45 44.55 52.83 33.59C52.32 24.62 45.11 16.53 34.43 16.45C24.42 16.38 16.2 24.85 16.33 34.83Z" fill="#8E877E" fill-opacity="1.000000" fill-rule="nonzero"/>
	</g>
</svg>
