<svg width="116.000000" height="89.000000" viewBox="0 0 116 89" fill="none" xmlns="http://www.w3.org/2000/svg" xmlns:xlink="http://www.w3.org/1999/xlink">
	<desc>
			Created with Pixso.
	</desc>
	<defs>
		<clipPath id="clip105_566">
			<rect id="Graphic_Elemnts" width="116.000000" height="89.000000" fill="white" fill-opacity="0"/>
		</clipPath>
	</defs>
	<g clip-path="url(#clip105_566)">
		<path id="path" d="M77.42 77.79C75.52 77.67 73.62 77.46 71.72 77.46C70.85 77.47 69.91 77.74 69.12 78.14C54.95 85.28 40 89.05 24.23 89.03C19.37 89.03 14.53 88.4 9.97 86.42C6.31 84.84 3.72 82.38 2.95 78.06C2.32 74.53 1.36 71.05 0.39 67.59C-0.48 64.46 0.13 61.69 1.78 59.04C4.16 55.23 7.38 52.24 11.14 50.13C16.44 47.17 21.97 44.63 27.46 42.06C28.81 41.43 29.47 40.97 29.45 39.2C29.42 36.52 29.73 33.76 30.35 31.14C31.34 26.99 32.33 22.76 33.99 18.88C37.94 9.61 45.41 4.53 54.51 1.85C74.05 -3.91 97.6 4.15 109.31 20.58C115.28 28.95 117.5 38.12 114.32 48.31C113.37 51.35 112.74 54.5 111.65 57.49C108.34 66.57 101.57 71.86 93.08 75.1C88.04 77.03 82.8 77.87 77.42 77.79ZM40.54 38.01C41.11 37.91 41.49 37.86 41.87 37.78C48.57 36.27 55.34 35.41 62.19 35.59C67.66 35.72 73.08 36.34 78.05 39.06C80.69 40.51 82.44 42.63 83.13 45.71C84.3 50.97 85.57 56.21 86.84 61.63C88.42 61.17 90.28 60.75 92.06 60.09C99.54 57.3 105.32 52.59 107.73 44.4C108.08 43.19 107.94 41.54 107.43 40.38C104.95 34.76 101.08 30.21 96.37 26.49C84.68 17.26 71.48 13.63 56.93 15.52C51.6 16.21 46.58 18.05 42.04 21.09C41.27 21.61 40.44 22.41 40.14 23.26C38.46 28.14 38.73 33.01 40.54 38.01ZM62.95 61.36C62.47 61.16 62.18 61.03 61.89 60.91C54.93 58.06 48.79 53.98 43.99 47.95C39.48 42.31 36.71 35.93 37.17 28.47C37.74 19.17 42.74 12.78 50.42 8.6C59.78 3.51 69.74 3.19 79.77 5.8C91.49 8.84 101.2 15.05 107.28 26.3C112.7 36.32 111.29 47.44 103.61 55.19C99.21 59.64 93.81 62.17 87.8 63.36C85.16 63.88 85.11 63.93 84.54 66.3C90.43 65.84 95.93 64.18 101 61.13C113.52 53.58 117.33 39.24 110.4 26.09C106.5 18.69 100.78 13.17 93.71 9.22C79.72 1.4 65.15 -0.77 50.12 5.62C34.19 12.38 29.13 29.56 38.38 44.6C43.28 52.56 50.27 57.9 58.44 61.81C60.04 62.58 61.4 62.75 62.95 61.36ZM46.14 68.25C42.86 64.84 39.67 61.48 36.4 58.2C36.1 57.9 35.25 57.89 34.81 58.1C29.52 60.61 24.21 63.08 19.02 65.8C17.22 66.74 15.74 68.34 14.11 69.63C25.14 72.66 35.71 70.92 46.14 68.25ZM30.16 73.16C27.01 73.16 23.86 73.27 20.71 73.13C16.83 72.96 13.01 72.27 9.56 70.25C5 67.57 3.71 63.12 6.78 58.76C8.75 55.97 11.57 53.82 14.03 51.4C14.4 51.03 14.9 50.8 15.33 50.49C15.69 50.22 16.03 49.91 16.38 49.62C11.25 52.23 6.44 55.25 3.3 60.32C0.85 64.3 1.55 67.65 5.26 70.12C6.4 70.89 7.69 71.5 8.99 71.92C15.93 74.17 23.02 74.28 30.16 73.16ZM53.68 53.75C53.59 53.98 53.51 54.21 53.42 54.44C56.63 56.03 59.85 57.58 63.03 59.22C64.74 60.09 66.19 59.95 67.66 58.63C69.13 57.3 70.73 56.12 72.57 54.64C65.9 53 59.8 52.97 53.68 53.75ZM64.4 63.33C64.48 63.46 64.56 63.59 64.64 63.72C67.94 61.45 71.42 59.41 74.49 56.84C76.7 55 78.67 52.67 80.19 50.18C82.21 46.85 81.31 43.74 78.15 41.54C77.02 40.75 75.77 39.93 74.47 39.66C70.5 38.82 66.49 38.11 62.47 37.61C60.28 37.33 58.04 37.56 55.82 37.56C58.52 38.07 61.2 38.16 63.88 38.4C67.71 38.73 71.42 39.58 74.64 41.91C77.72 44.14 78.79 47.33 77.2 50.81C76.24 52.91 74.87 54.99 73.2 56.52C70.47 59.03 67.36 61.09 64.4 63.33Z" fill="#8E877E" fill-opacity="1.000000" fill-rule="nonzero"/>
	</g>
</svg>
